<svg xmlns="http://www.w3.org/2000/svg" xml:space="preserve" viewBox="0 0 482.1 482.1"><path d="M142 310.2c0-8-5.5-12.8-15.3-12.8-4 0-6.7.4-8.2.8v25.7c1.7.4 3.8.5 6.6.5 10.5 0 17-5.3 17-14.2zM202.7 297.7c-4.4 0-7.2.4-8.9.8v56.8c1.7.4 4.4.4 6.8.4 17.9.2 29.5-9.6 29.5-30.4 0-18-10.5-27.6-27.4-27.6z"/><path d="M315.5 0H121.8C93.5 0 70.5 23 70.5 51.3v189.8h-5a20.7 20.7 0 0 0-20.7 20.6v125.5c0 11.4 9.3 20.6 20.7 20.6h5v23c0 28.3 23 51.3 51.3 51.3H386c28.3 0 51.3-23 51.3-51.3V121.4L315.5 0zM99 284.4c6-1 14.5-1.8 26.5-1.8 12.2 0 20.8 2.3 26.6 7a25.4 25.4 0 0 1 9.3 20c0 8.6-2.8 15.8-8 20.7-6.7 6.3-16.6 9.2-28.3 9.2a51 51 0 0 1-6.7-.4v31H99.1v-85.7zm287 166.3H121.7a20 20 0 0 1-19.9-19.9v-23h246.3c11.5 0 20.7-9.2 20.7-20.6V261.7c0-11.4-9.2-20.6-20.7-20.6H102V51.3c0-11 9-19.8 20-19.8l181.8-.2v67.2c0 19.6 16 35.6 35.6 35.6l65.8-.2.8 297c0 10.9-9 19.8-19.9 19.8zm-212-80.9v-85.4c7.2-1.2 16.6-1.8 26.5-1.8 16.6 0 27.3 3 35.7 9.3 9 6.7 14.7 17.4 14.7 32.7a44 44 0 0 1-14.5 35.3c-9.1 7.6-23 11.2-40.1 11.2-10.2 0-17.4-.7-22.3-1.3zm140.8-50.6v16h-31.2v35h-19.8v-87h53.2v16.2h-33.4v19.8h31.2z"/></svg>