<svg xmlns="http://www.w3.org/2000/svg" xml:space="preserve" style="enable-background:new 0 0 53.942 53.942" viewBox="0 0 53.942 53.942">
  <path d="M53.364 40.908c-2.008-3.796-8.981-7.912-9.288-8.092-.896-.51-1.831-.78-2.706-.78-1.301 0-2.366.596-3.011 1.68-1.02 1.22-2.285 2.646-2.592 2.867-2.376 1.612-4.236 1.429-6.294-.629L17.987 24.467c-2.045-2.045-2.233-3.928-.632-6.291.224-.309 1.65-1.575 2.87-2.596.778-.463 1.312-1.151 1.546-1.995.311-1.123.082-2.444-.652-3.731-.173-.296-4.291-7.27-8.085-9.277a4.947 4.947 0 0 0-2.306-.573 4.908 4.908 0 0 0-3.49 1.445L4.7 3.986C.686 7.999-.767 12.548.379 17.506c.956 4.132 3.742 8.529 8.282 13.068l14.705 14.705c5.746 5.746 11.224 8.66 16.282 8.66h.001c3.72 0 7.188-1.581 10.305-4.698l2.537-2.537a4.908 4.908 0 0 0 .873-5.796z"/>
</svg>
